<svg xmlns="http://www.w3.org/2000/svg" viewBox="0 0 800 420" fill="none">
<rect width="800" height="420" fill="#080808"/>
<rect x="20" y="20" width="760" height="380" rx="16" fill="#0d0d0d" stroke="#1a1a1a"/>

<text x="400" y="58" text-anchor="middle" fill="#e94560" font-family="system-ui" font-size="15" font-weight="700">7 AUTOMATIZACIONES CLAVE EN TELEGRAM</text>

<!-- Row 1 -->
<rect x="45" y="80" width="225" height="65" rx="10" fill="#111" stroke="#e94560" stroke-width="1"/>
<text x="65" y="108" fill="#e94560" font-family="system-ui" font-size="18">💬</text>
<text x="90" y="105" fill="#fff" font-family="system-ui" font-size="12" font-weight="600">1. Responder FAQs</text>
<text x="90" y="125" fill="#888" font-family="system-ui" font-size="10">80% menos preguntas repetidas</text>

<rect x="287" y="80" width="225" height="65" rx="10" fill="#111" stroke="#e94560" stroke-width="1"/>
<text x="307" y="108" fill="#e94560" font-family="system-ui" font-size="18">🛡️</text>
<text x="332" y="105" fill="#fff" font-family="system-ui" font-size="12" font-weight="600">2. Moderar grupo</text>
<text x="332" y="125" fill="#888" font-family="system-ui" font-size="10">Anti-spam automatico</text>

<rect x="530" y="80" width="225" height="65" rx="10" fill="#111" stroke="#e94560" stroke-width="1"/>
<text x="550" y="108" fill="#e94560" font-family="system-ui" font-size="18">📋</text>
<text x="575" y="105" fill="#fff" font-family="system-ui" font-size="12" font-weight="600">3. Resumir debates</text>
<text x="575" y="125" fill="#888" font-family="system-ui" font-size="10">200 msgs en 1 parrafo</text>

<!-- Row 2 -->
<rect x="45" y="165" width="225" height="65" rx="10" fill="#111" stroke="#e94560" stroke-width="1"/>
<text x="65" y="193" fill="#e94560" font-family="system-ui" font-size="18">🔍</text>
<text x="90" y="190" fill="#fff" font-family="system-ui" font-size="12" font-weight="600">4. Buscar info en vivo</text>
<text x="90" y="210" fill="#888" font-family="system-ui" font-size="10">Datos en tiempo real de la web</text>

<rect x="287" y="165" width="225" height="65" rx="10" fill="#111" stroke="#e94560" stroke-width="1"/>
<text x="307" y="193" fill="#e94560" font-family="system-ui" font-size="18">⏰</text>
<text x="332" y="190" fill="#fff" font-family="system-ui" font-size="12" font-weight="600">5. Recordatorios</text>
<text x="332" y="210" fill="#888" font-family="system-ui" font-size="10">Agenda desde el chat</text>

<rect x="530" y="165" width="225" height="65" rx="10" fill="#111" stroke="#e94560" stroke-width="1"/>
<text x="550" y="193" fill="#e94560" font-family="system-ui" font-size="18">👋</text>
<text x="575" y="190" fill="#fff" font-family="system-ui" font-size="12" font-weight="600">6. Onboarding auto</text>
<text x="575" y="210" fill="#888" font-family="system-ui" font-size="10">Bienvenida personalizada</text>

<!-- Row 3 center -->
<rect x="287" y="250" width="225" height="65" rx="10" fill="#111" stroke="#e94560" stroke-width="1.5"/>
<text x="307" y="278" fill="#e94560" font-family="system-ui" font-size="18">🧠</text>
<text x="332" y="275" fill="#fff" font-family="system-ui" font-size="12" font-weight="600">7. Asistente completo</text>
<text x="332" y="295" fill="#888" font-family="system-ui" font-size="10">Traduce, calcula, analiza, crea</text>

<!-- Bottom result -->
<rect x="170" y="340" width="460" height="45" rx="10" fill="#111" stroke="#e94560" stroke-width="1.5"/>
<text x="400" y="365" text-anchor="middle" fill="#e94560" font-family="system-ui" font-size="13" font-weight="700">= Comunidad activa 24/7 sin tu intervencion constante</text>
<text x="400" y="380" text-anchor="middle" fill="#888" font-family="system-ui" font-size="10">Todo con un solo agente IA conectado via OpenClaw</text>
</svg>
