<svg xmlns="http://www.w3.org/2000/svg" viewBox="0 0 1200 630" fill="none">
<rect width="1200" height="630" fill="#080808"/>
<rect x="40" y="40" width="1120" height="550" rx="20" fill="#0d0d0d" stroke="#1a1a1a"/>

<!-- Central brain/bulb icon -->
<circle cx="600" cy="240" r="70" fill="#111" stroke="#e94560" stroke-width="2"/>
<text x="600" y="260" text-anchor="middle" font-family="system-ui" font-size="56">🧠</text>

<!-- Connection lines from center -->
<line x1="530" y1="210" x2="200" y2="120" stroke="#e94560" stroke-width="1" opacity="0.4"/>
<line x1="540" y1="280" x2="200" y2="400" stroke="#e94560" stroke-width="1" opacity="0.4"/>
<line x1="660" y1="210" x2="1000" y2="120" stroke="#e94560" stroke-width="1" opacity="0.4"/>
<line x1="660" y1="280" x2="1000" y2="400" stroke="#e94560" stroke-width="1" opacity="0.4"/>
<line x1="600" y1="310" x2="600" y2="430" stroke="#e94560" stroke-width="1" opacity="0.4"/>

<!-- Orbiting business icons -->
<circle cx="160" cy="100" r="42" fill="#111" stroke="#e94560" stroke-width="1.5"/>
<text x="160" y="118" text-anchor="middle" font-family="system-ui" font-size="32">🛒</text>

<circle cx="1040" cy="100" r="42" fill="#111" stroke="#e94560" stroke-width="1.5"/>
<text x="1040" y="118" text-anchor="middle" font-family="system-ui" font-size="32">💻</text>

<circle cx="160" cy="420" r="42" fill="#111" stroke="#e94560" stroke-width="1.5"/>
<text x="160" y="438" text-anchor="middle" font-family="system-ui" font-size="32">✍️</text>

<circle cx="1040" cy="420" r="42" fill="#111" stroke="#e94560" stroke-width="1.5"/>
<text x="1040" y="438" text-anchor="middle" font-family="system-ui" font-size="32">📈</text>

<circle cx="600" cy="450" r="42" fill="#111" stroke="#e94560" stroke-width="1.5"/>
<text x="600" y="468" text-anchor="middle" font-family="system-ui" font-size="32">🤖</text>

<!-- Secondary row -->
<circle cx="370" cy="150" r="36" fill="#111" stroke="#1a1a1a" stroke-width="1"/>
<text x="370" y="166" text-anchor="middle" font-family="system-ui" font-size="26">🎯</text>

<circle cx="830" cy="150" r="36" fill="#111" stroke="#1a1a1a" stroke-width="1"/>
<text x="830" y="166" text-anchor="middle" font-family="system-ui" font-size="26">📚</text>

<circle cx="370" cy="400" r="36" fill="#111" stroke="#1a1a1a" stroke-width="1"/>
<text x="370" y="416" text-anchor="middle" font-family="system-ui" font-size="26">🎬</text>

<circle cx="830" cy="400" r="36" fill="#111" stroke="#1a1a1a" stroke-width="1"/>
<text x="830" y="416" text-anchor="middle" font-family="system-ui" font-size="26">💼</text>

<!-- Labels -->
<text x="600" y="530" text-anchor="middle" fill="#fff" font-family="system-ui" font-size="22" font-weight="700">50 ideas de negocio con IA</text>
<text x="600" y="555" text-anchor="middle" fill="#555" font-family="system-ui" font-size="12">tribuclaw.com</text>
</svg>
