<svg xmlns="http://www.w3.org/2000/svg" viewBox="0 0 1200 630" fill="none">
<rect width="1200" height="630" fill="#080808"/>
<rect x="40" y="40" width="1120" height="550" rx="20" fill="#0d0d0d" stroke="#1a1a1a"/>
<!-- Phone mockup -->
<rect x="440" y="80" width="320" height="460" rx="24" fill="#111" stroke="#25D366" stroke-width="2"/>
<rect x="460" y="120" width="280" height="380" rx="8" fill="#0a0a0a"/>
<!-- WhatsApp header -->
<rect x="460" y="120" width="280" height="45" rx="8" fill="#1a1a1a"/>
<text x="600" y="148" text-anchor="middle" fill="#25D366" font-family="system-ui" font-size="14" font-weight="600">WhatsApp + IA</text>
<!-- Chat bubbles -->
<rect x="475" y="180" width="180" height="40" rx="10" fill="#1a1a1a"/>
<text x="485" y="205" fill="#ccc" font-family="system-ui" font-size="11">Cuanto cuesta el servicio?</text>
<rect x="565" y="235" width="160" height="55" rx="10" fill="#0b3d2e"/>
<text x="575" y="255" fill="#25D366" font-family="system-ui" font-size="10">🤖 Respuesta en 3s</text>
<text x="575" y="272" fill="#ddd" font-family="system-ui" font-size="10">El plan basico son 49eur/</text>
<text x="575" y="284" fill="#ddd" font-family="system-ui" font-size="10">mes. Quieres mas info?</text>
<rect x="475" y="305" width="150" height="35" rx="10" fill="#1a1a1a"/>
<text x="485" y="327" fill="#ccc" font-family="system-ui" font-size="11">Si, me interesa</text>
<rect x="565" y="355" width="160" height="45" rx="10" fill="#0b3d2e"/>
<text x="575" y="373" fill="#25D366" font-family="system-ui" font-size="10">🤖 Respuesta en 2s</text>
<text x="575" y="390" fill="#ddd" font-family="system-ui" font-size="10">Perfecto! Te paso el link</text>
<!-- Left side stats -->
<text x="200" y="220" text-anchor="middle" fill="#e94560" font-family="system-ui" font-size="48" font-weight="800">2s</text>
<text x="200" y="250" text-anchor="middle" fill="#888" font-family="system-ui" font-size="13">Tiempo de respuesta</text>
<text x="200" y="340" text-anchor="middle" fill="#e94560" font-family="system-ui" font-size="48" font-weight="800">24/7</text>
<text x="200" y="370" text-anchor="middle" fill="#888" font-family="system-ui" font-size="13">Disponibilidad</text>
<!-- Right side stats -->
<text x="1000" y="220" text-anchor="middle" fill="#e94560" font-family="system-ui" font-size="48" font-weight="800">0</text>
<text x="1000" y="250" text-anchor="middle" fill="#888" font-family="system-ui" font-size="13">Clientes perdidos</text>
<text x="1000" y="340" text-anchor="middle" fill="#e94560" font-family="system-ui" font-size="48" font-weight="800">95%</text>
<text x="1000" y="370" text-anchor="middle" fill="#888" font-family="system-ui" font-size="13">Precision</text>
<!-- Title -->
<text x="600" y="570" text-anchor="middle" fill="#fff" font-family="system-ui" font-size="22" font-weight="700">Automatiza tu WhatsApp con IA</text>
<text x="600" y="595" text-anchor="middle" fill="#555" font-family="system-ui" font-size="12">tribuclaw.com</text>
</svg>