<svg xmlns="http://www.w3.org/2000/svg" viewBox="0 0 1200 675" fill="none">
<rect width="1200" height="675" fill="#0a0a0f"/>
<rect x="40" y="40" width="1120" height="595" rx="20" fill="#0d0d0d" stroke="#1a1a1a"/>
<!-- Balance scale -->
<line x1="600" y1="160" x2="600" y2="420" stroke="#e94560" stroke-width="3"/>
<rect x="560" y="410" width="80" height="12" rx="3" fill="#e94560"/>
<!-- Beam -->
<line x1="420" y1="220" x2="780" y2="220" stroke="#e94560" stroke-width="3"/>
<!-- Left plate -->
<line x1="420" y1="220" x2="380" y2="300" stroke="#e94560" stroke-width="2"/>
<path d="M340 300 Q380 320 420 300" stroke="#e94560" stroke-width="2" fill="none"/>
<ellipse cx="380" cy="302" rx="40" ry="6" fill="none" stroke="#e94560" stroke-width="1.5" opacity="0.7"/>
<!-- Right plate -->
<line x1="780" y1="220" x2="820" y2="300" stroke="#e94560" stroke-width="2"/>
<path d="M780 300 Q820 320 860 300" stroke="#e94560" stroke-width="2" fill="none"/>
<ellipse cx="820" cy="302" rx="40" ry="6" fill="none" stroke="#e94560" stroke-width="1.5" opacity="0.7"/>
<!-- Pillar base -->
<line x1="570" y1="420" x2="630" y2="420" stroke="#e94560" stroke-width="2"/>
<!-- AI gear 1 -->
<circle cx="280" cy="450" r="45" fill="none" stroke="#e94560" stroke-width="1.5" opacity="0.5"/>
<circle cx="280" cy="450" r="30" fill="none" stroke="#e94560" stroke-width="1" opacity="0.3"/>
<circle cx="280" cy="450" r="8" fill="#e94560" opacity="0.4"/>
<!-- Gear teeth hints -->
<rect x="275" y="402" width="10" height="8" rx="2" fill="#e94560" opacity="0.4"/>
<rect x="275" y="490" width="10" height="8" rx="2" fill="#e94560" opacity="0.4"/>
<rect x="232" y="445" width="8" height="10" rx="2" fill="#e94560" opacity="0.4"/>
<rect x="320" y="445" width="8" height="10" rx="2" fill="#e94560" opacity="0.4"/>
<!-- AI gear 2 -->
<circle cx="370" cy="500" r="35" fill="none" stroke="#e94560" stroke-width="1.5" opacity="0.4"/>
<circle cx="370" cy="500" r="6" fill="#e94560" opacity="0.3"/>
<!-- Brain node (AI) -->
<circle cx="900" cy="480" r="50" fill="#111" stroke="#e94560" stroke-width="1.5" opacity="0.6"/>
<circle cx="890" cy="470" r="12" fill="none" stroke="#e94560" stroke-width="1" opacity="0.5"/>
<circle cx="915" cy="465" r="8" fill="none" stroke="#e94560" stroke-width="1" opacity="0.5"/>
<circle cx="900" cy="495" r="10" fill="none" stroke="#e94560" stroke-width="1" opacity="0.5"/>
<line x1="890" y1="470" x2="915" y2="465" stroke="#e94560" stroke-width="0.8" opacity="0.3"/>
<line x1="915" y1="465" x2="900" y2="495" stroke="#e94560" stroke-width="0.8" opacity="0.3"/>
<line x1="890" y1="470" x2="900" y2="495" stroke="#e94560" stroke-width="0.8" opacity="0.3"/>
<!-- Connection lines -->
<line x1="325" y1="460" x2="520" y2="420" stroke="#e94560" stroke-width="1" opacity="0.2"/>
<line x1="680" y1="420" x2="855" y2="475" stroke="#e94560" stroke-width="1" opacity="0.2"/>
<!-- Document icons -->
<rect x="160" y="240" width="40" height="50" rx="3" fill="none" stroke="#e94560" stroke-width="1" opacity="0.3"/>
<line x1="168" y1="255" x2="192" y2="255" stroke="#e94560" stroke-width="1" opacity="0.2"/>
<line x1="168" y1="265" x2="192" y2="265" stroke="#e94560" stroke-width="1" opacity="0.2"/>
<line x1="168" y1="275" x2="185" y2="275" stroke="#e94560" stroke-width="1" opacity="0.2"/>
<rect x="980" y="250" width="40" height="50" rx="3" fill="none" stroke="#e94560" stroke-width="1" opacity="0.3"/>
<line x1="988" y1="265" x2="1012" y2="265" stroke="#e94560" stroke-width="1" opacity="0.2"/>
<line x1="988" y1="275" x2="1012" y2="275" stroke="#e94560" stroke-width="1" opacity="0.2"/>
<line x1="988" y1="285" x2="1005" y2="285" stroke="#e94560" stroke-width="1" opacity="0.2"/>
<!-- Dots pattern -->
<circle cx="200" cy="550" r="3" fill="#e94560" opacity="0.15"/>
<circle cx="250" cy="570" r="2" fill="#e94560" opacity="0.1"/>
<circle cx="1000" cy="550" r="3" fill="#e94560" opacity="0.15"/>
<circle cx="950" cy="570" r="2" fill="#e94560" opacity="0.1"/>
<circle cx="600" cy="600" r="3" fill="#e94560" opacity="0.1"/>
</svg>