<svg xmlns="http://www.w3.org/2000/svg" viewBox="0 0 1200 630" fill="none">
<rect width="1200" height="630" fill="#080808"/>
<rect x="40" y="40" width="1120" height="550" rx="20" fill="#0d0d0d" stroke="#1a1a1a"/>

<!-- Lightbulb -->
<ellipse cx="600" cy="200" rx="70" ry="75" fill="none" stroke="#7C3AED" stroke-width="2.5"/>
<rect x="575" y="270" width="50" height="20" rx="4" fill="none" stroke="#7C3AED" stroke-width="2"/>
<line x1="600" y1="125" x2="600" y2="105" stroke="#FBBF24" stroke-width="2"/>
<line x1="650" y1="145" x2="665" y2="130" stroke="#FBBF24" stroke-width="2"/>
<line x1="550" y1="145" x2="535" y2="130" stroke="#FBBF24" stroke-width="2"/>
<line x1="670" y1="200" x2="690" y2="200" stroke="#FBBF24" stroke-width="2"/>
<line x1="530" y1="200" x2="510" y2="200" stroke="#FBBF24" stroke-width="2"/>
<!-- Lightbulb inner glow -->
<circle cx="600" cy="200" r="30" fill="#7C3AED" opacity="0.15"/>
<circle cx="600" cy="200" r="15" fill="#FBBF24" opacity="0.3"/>

<!-- Brain left -->
<ellipse cx="500" cy="195" rx="40" ry="35" fill="none" stroke="#3B82F6" stroke-width="1.5" opacity="0.6"/>
<path d="M480 185 Q485 175 495 178 Q500 168 510 175 Q520 170 522 180 Q530 178 532 188" fill="none" stroke="#3B82F6" stroke-width="1.2" opacity="0.4"/>

<!-- Brain right -->
<ellipse cx="700" cy="195" rx="40" ry="35" fill="none" stroke="#3B82F6" stroke-width="1.5" opacity="0.6"/>
<path d="M668 188 Q670 178 680 175 Q685 165 695 172 Q705 168 708 178 Q715 176 718 186" fill="none" stroke="#3B82F6" stroke-width="1.2" opacity="0.4"/>

<!-- Chip left -->
<rect x="140" y="160" width="60" height="60" rx="8" fill="none" stroke="#7C3AED" stroke-width="1.5" opacity="0.5"/>
<line x1="160" y1="155" x2="160" y2="160" stroke="#7C3AED" stroke-width="1.5" opacity="0.5"/>
<line x1="180" y1="155" x2="180" y2="160" stroke="#7C3AED" stroke-width="1.5" opacity="0.5"/>
<line x1="160" y1="220" x2="160" y2="225" stroke="#7C3AED" stroke-width="1.5" opacity="0.5"/>
<line x1="180" y1="220" x2="180" y2="225" stroke="#7C3AED" stroke-width="1.5" opacity="0.5"/>
<line x1="135" y1="180" x2="140" y2="180" stroke="#7C3AED" stroke-width="1.5" opacity="0.5"/>
<line x1="135" y1="200" x2="140" y2="200" stroke="#7C3AED" stroke-width="1.5" opacity="0.5"/>
<line x1="200" y1="180" x2="205" y2="180" stroke="#7C3AED" stroke-width="1.5" opacity="0.5"/>
<line x1="200" y1="200" x2="205" y2="200" stroke="#7C3AED" stroke-width="1.5" opacity="0.5"/>
<circle cx="170" cy="190" r="10" fill="#7C3AED" opacity="0.15"/>

<!-- Chip right -->
<rect x="1000" y="160" width="60" height="60" rx="8" fill="none" stroke="#3B82F6" stroke-width="1.5" opacity="0.5"/>
<line x1="1020" y1="155" x2="1020" y2="160" stroke="#3B82F6" stroke-width="1.5" opacity="0.5"/>
<line x1="1040" y1="155" x2="1040" y2="160" stroke="#3B82F6" stroke-width="1.5" opacity="0.5"/>
<line x1="1020" y1="220" x2="1020" y2="225" stroke="#3B82F6" stroke-width="1.5" opacity="0.5"/>
<line x1="1040" y1="220" x2="1040" y2="225" stroke="#3B82F6" stroke-width="1.5" opacity="0.5"/>
<line x1="995" y1="180" x2="1000" y2="180" stroke="#3B82F6" stroke-width="1.5" opacity="0.5"/>
<line x1="995" y1="200" x2="1000" y2="200" stroke="#3B82F6" stroke-width="1.5" opacity="0.5"/>
<line x1="1060" y1="180" x2="1065" y2="180" stroke="#3B82F6" stroke-width="1.5" opacity="0.5"/>
<line x1="1060" y1="200" x2="1065" y2="200" stroke="#3B82F6" stroke-width="1.5" opacity="0.5"/>
<circle cx="1030" cy="190" r="10" fill="#3B82F6" opacity="0.15"/>

<!-- Number 50 -->
<text x="600" y="145" text-anchor="middle" fill="#FBBF24" font-family="system-ui" font-size="32" font-weight="800" opacity="0.6">50</text>

<!-- 6 idea cards row -->
<rect x="100" y="330" width="150" height="90" rx="10" fill="#111" stroke="#7C3AED" stroke-width="1.2"/>
<circle cx="130" cy="360" r="12" fill="#7C3AED" opacity="0.2"/>
<text x="130" y="364" text-anchor="middle" fill="#7C3AED" font-family="system-ui" font-size="10" font-weight="700">01</text>
<text x="175" y="365" fill="#fff" font-family="system-ui" font-size="11" font-weight="600">Chatbots</text>
<text x="175" y="385" fill="#888" font-family="system-ui" font-size="10">Atención 24/7</text>
<text x="175" y="405" fill="#7C3AED" font-family="system-ui" font-size="10" font-weight="600">$500-5K/mes</text>

<rect x="280" y="330" width="150" height="90" rx="10" fill="#111" stroke="#3B82F6" stroke-width="1.2"/>
<circle cx="310" cy="360" r="12" fill="#3B82F6" opacity="0.2"/>
<text x="310" y="364" text-anchor="middle" fill="#3B82F6" font-family="system-ui" font-size="10" font-weight="700">02</text>
<text x="355" y="365" fill="#fff" font-family="system-ui" font-size="11" font-weight="600">Contenido AI</text>
<text x="355" y="385" fill="#888" font-family="system-ui" font-size="10">Blogs y social</text>
<text x="355" y="405" fill="#3B82F6" font-family="system-ui" font-size="10" font-weight="600">$1K-10K/mes</text>

<rect x="460" y="330" width="150" height="90" rx="10" fill="#111" stroke="#7C3AED" stroke-width="1.2"/>
<circle cx="490" cy="360" r="12" fill="#7C3AED" opacity="0.2"/>
<text x="490" y="364" text-anchor="middle" fill="#7C3AED" font-family="system-ui" font-size="10" font-weight="700">03</text>
<text x="535" y="365" fill="#fff" font-family="system-ui" font-size="11" font-weight="600">Automatización</text>
<text x="535" y="385" fill="#888" font-family="system-ui" font-size="10">Workflows IA</text>
<text x="535" y="405" fill="#7C3AED" font-family="system-ui" font-size="10" font-weight="600">$2K-15K/mes</text>

<rect x="640" y="330" width="150" height="90" rx="10" fill="#111" stroke="#3B82F6" stroke-width="1.2"/>
<circle cx="670" cy="360" r="12" fill="#3B82F6" opacity="0.2"/>
<text x="670" y="364" text-anchor="middle" fill="#3B82F6" font-family="system-ui" font-size="10" font-weight="700">04</text>
<text x="715" y="365" fill="#fff" font-family="system-ui" font-size="11" font-weight="600">E-learning AI</text>
<text x="715" y="385" fill="#888" font-family="system-ui" font-size="10">Cursos con IA</text>
<text x="715" y="405" fill="#3B82F6" font-family="system-ui" font-size="10" font-weight="600">$1K-8K/mes</text>

<rect x="820" y="330" width="150" height="90" rx="10" fill="#111" stroke="#7C3AED" stroke-width="1.2"/>
<circle cx="850" cy="360" r="12" fill="#7C3AED" opacity="0.2"/>
<text x="850" y="364" text-anchor="middle" fill="#7C3AED" font-family="system-ui" font-size="10" font-weight="700">05</text>
<text x="895" y="365" fill="#fff" font-family="system-ui" font-size="11" font-weight="600">Data Analytics</text>
<text x="895" y="385" fill="#888" font-family="system-ui" font-size="10">Insights AI</text>
<text x="895" y="405" fill="#7C3AED" font-family="system-ui" font-size="10" font-weight="600">$3K-20K/mes</text>

<rect x="1000" y="330" width="150" height="90" rx="10" fill="#111" stroke="#3B82F6" stroke-width="1.2"/>
<circle cx="1030" cy="360" r="12" fill="#3B82F6" opacity="0.2"/>
<text x="1030" y="364" text-anchor="middle" fill="#3B82F6" font-family="system-ui" font-size="10" font-weight="700">...</text>
<text x="1075" y="365" fill="#fff" font-family="system-ui" font-size="11" font-weight="600">+45 más</text>
<text x="1075" y="385" fill="#888" font-family="system-ui" font-size="10">Todas con IA</text>
<text x="1075" y="405" fill="#3B82F6" font-family="system-ui" font-size="10" font-weight="600">2026</text>

<!-- Connecting lines from bulb to cards -->
<line x1="520" y1="275" x2="250" y2="330" stroke="#7C3AED" stroke-width="0.8" opacity="0.2"/>
<line x1="560" y1="280" x2="430" y2="330" stroke="#3B82F6" stroke-width="0.8" opacity="0.2"/>
<line x1="600" y1="290" x2="600" y2="330" stroke="#7C3AED" stroke-width="0.8" opacity="0.2"/>
<line x1="640" y1="280" x2="770" y2="330" stroke="#3B82F6" stroke-width="0.8" opacity="0.2"/>
<line x1="680" y1="275" x2="950" y2="330" stroke="#7C3AED" stroke-width="0.8" opacity="0.2"/>

<!-- Bottom text -->
<text x="600" y="490" text-anchor="middle" fill="#fff" font-family="system-ui" font-size="22" font-weight="700">50 ideas de negocio con IA para 2026</text>
<text x="600" y="515" text-anchor="middle" fill="#888" font-family="system-ui" font-size="13">La guía definitiva para monetizar inteligencia artificial</text>
<text x="600" y="555" text-anchor="middle" fill="#555" font-family="system-ui" font-size="12">tribuclaw.com</text>
</svg>