<svg xmlns="http://www.w3.org/2000/svg" viewBox="0 0 1200 630" width="1200" height="630">
  <defs>
    <linearGradient id="bg" x1="0%" y1="0%" x2="100%" y2="100%">
      <stop offset="0%" style="stop-color:#050505"/>
      <stop offset="100%" style="stop-color:#0d0d0d"/>
    </linearGradient>
    <radialGradient id="glow" cx="30%" cy="50%" r="45%">
      <stop offset="0%" style="stop-color:#e94560;stop-opacity:0.10"/>
      <stop offset="100%" style="stop-color:#e94560;stop-opacity:0"/>
    </radialGradient>
  </defs>
  <rect width="1200" height="630" fill="url(#bg)"/>
  <rect width="1200" height="630" fill="url(#glow)"/>
  <g opacity="0.035" stroke="#fff" stroke-width="1">
    <line x1="0" y1="126" x2="1200" y2="126"/><line x1="0" y1="252" x2="1200" y2="252"/>
    <line x1="0" y1="378" x2="1200" y2="378"/><line x1="0" y1="504" x2="1200" y2="504"/>
    <line x1="240" y1="0" x2="240" y2="630"/><line x1="480" y1="0" x2="480" y2="630"/>
    <line x1="720" y1="0" x2="720" y2="630"/><line x1="960" y1="0" x2="960" y2="630"/>
  </g>
  <!-- Accent bar -->
  <rect x="80" y="170" width="6" height="120" rx="3" fill="#e94560"/>
  <!-- Lines 1 and 2 of title -->
  <text x="100" y="250" font-family="system-ui,-apple-system,sans-serif" font-size="72" font-weight="800" fill="#ffffff" letter-spacing="-2">OpenClaw</text>
  <text x="100" y="330" font-family="system-ui,-apple-system,sans-serif" font-size="72" font-weight="800" fill="#ffffff" letter-spacing="-2">vs n8n</text>
  <!-- Subtitle -->
  <text x="100" y="375" font-family="system-ui,-apple-system,sans-serif" font-size="24" fill="#777" letter-spacing="-0.3">La comparativa honesta 2026</text>
  <!-- Tag -->
  <rect x="100" y="405" width="130" height="32" rx="6" fill="#e94560" opacity="0.12" stroke="#e94560" stroke-width="1" stroke-opacity="0.25"/>
  <text x="165" y="423" font-family="system-ui,-apple-system,sans-serif" font-size="13" fill="#e94560" text-anchor="middle" font-weight="600">TRIBUCLAW</text>
  <text x="1120" y="605" font-family="system-ui,-apple-system,sans-serif" font-size="16" fill="#2a2a2a" text-anchor="end" font-weight="600">tribuclaw.com</text>
</svg>