<svg width="64" height="64" viewBox="0 0 64 64" xmlns="http://www.w3.org/2000/svg">
  <defs>
    <linearGradient id="waGrad" x1="0%" y1="0%" x2="100%" y2="100%">
      <stop offset="0%" style="stop-color:#e94560;stop-opacity:1" />
      <stop offset="100%" style="stop-color:#c23152;stop-opacity:1" />
    </linearGradient>
  </defs>

  <!-- Chat bubble -->
  <path d="M 12 16 Q 12 10 18 10 L 46 10 Q 52 10 52 16 L 52 40 Q 52 46 46 46 L 18 46 L 10 54 L 12 46 Q 12 46 12 40 Z" fill="none" stroke="url(#waGrad)" stroke-width="2.5" stroke-linejoin="round" />

  <!-- Phone handset inside bubble -->
  <g transform="translate(32, 28)">
    <!-- Handset -->
    <path d="M -6 -6 Q -10 -6 -10 -2 Q -10 6 0 16 Q 10 26 18 26 Q 22 26 22 22 L 22 18 Q 22 16 20 15 L 14 13 Q 12 12 10 14 L 8 16 Q 4 12 0 8 L 2 6 Q 4 4 3 2 L 1 -4 Q 0 -6 -2 -6 L -6 -6" fill="none" stroke="#e94560" stroke-width="2" stroke-linecap="round" stroke-linejoin="round" />
  </g>

  <!-- Notification dot -->
  <circle cx="48" cy="14" r="5" fill="#e94560" />
</svg>
