<svg xmlns="http://www.w3.org/2000/svg" viewBox="0 0 800 400" fill="none">
<rect width="800" height="400" fill="#080808"/>
<rect x="20" y="20" width="760" height="360" rx="16" fill="#0d0d0d" stroke="#1a1a1a"/>

<text x="400" y="55" text-anchor="middle" fill="#e94560" font-family="system-ui" font-size="16" font-weight="700">ARQUITECTURA DE PERSONALIZACION</text>

<!-- Central hub -->
<rect x="290" y="100" width="220" height="80" rx="12" fill="#111" stroke="#e94560" stroke-width="2"/>
<text x="400" y="135" text-anchor="middle" fill="#e94560" font-family="system-ui" font-size="20" font-weight="700">🦀 OpenClaw</text>
<text x="400" y="160" text-anchor="middle" fill="#888" font-family="system-ui" font-size="12">~/.openclaw/workspace/</text>

<!-- SOUL.md -->
<rect x="40" y="80" width="180" height="65" rx="10" fill="#111" stroke="#1a1a1a"/>
<text x="130" y="105" text-anchor="middle" fill="#e94560" font-family="system-ui" font-size="16">🧠</text>
<text x="130" y="122" text-anchor="middle" fill="#fff" font-family="system-ui" font-size="12" font-weight="600">SOUL.md</text>
<text x="130" y="137" text-anchor="middle" fill="#888" font-family="system-ui" font-size="10">Personalidad del agente</text>
<line x1="220" y1="112" x2="290" y2="130" stroke="#e94560" stroke-width="1" stroke-dasharray="4"/>

<!-- USER.md -->
<rect x="580" y="80" width="180" height="65" rx="10" fill="#111" stroke="#1a1a1a"/>
<text x="670" y="105" text-anchor="middle" fill="#e94560" font-family="system-ui" font-size="16">👤</text>
<text x="670" y="122" text-anchor="middle" fill="#fff" font-family="system-ui" font-size="12" font-weight="600">USER.md</text>
<text x="670" y="137" text-anchor="middle" fill="#888" font-family="system-ui" font-size="10">Info sobre ti</text>
<line x1="580" y1="112" x2="510" y2="130" stroke="#e94560" stroke-width="1" stroke-dasharray="4"/>

<!-- memory/ -->
<rect x="40" y="200" width="180" height="65" rx="10" fill="#111" stroke="#1a1a1a"/>
<text x="130" y="225" text-anchor="middle" fill="#e94560" font-family="system-ui" font-size="16">💾</text>
<text x="130" y="242" text-anchor="middle" fill="#fff" font-family="system-ui" font-size="12" font-weight="600">memory/</text>
<text x="130" y="257" text-anchor="middle" fill="#888" font-family="system-ui" font-size="10">Memoria permanente</text>
<line x1="220" y1="232" x2="290" y2="155" stroke="#e94560" stroke-width="1" stroke-dasharray="4"/>

<!-- Canales -->
<rect x="580" y="200" width="180" height="65" rx="10" fill="#111" stroke="#1a1a1a"/>
<text x="670" y="225" text-anchor="middle" fill="#e94560" font-family="system-ui" font-size="16">💬</text>
<text x="670" y="242" text-anchor="middle" fill="#fff" font-family="system-ui" font-size="12" font-weight="600">Canales</text>
<text x="670" y="257" text-anchor="middle" fill="#888" font-family="system-ui" font-size="10">Telegram · WhatsApp · Discord</text>
<line x1="580" y1="232" x2="510" y2="155" stroke="#e94560" stroke-width="1" stroke-dasharray="4"/>

<!-- Skills -->
<rect x="200" y="230" width="180" height="65" rx="10" fill="#111" stroke="#1a1a1a"/>
<text x="290" y="255" text-anchor="middle" fill="#e94560" font-family="system-ui" font-size="16">🔧</text>
<text x="290" y="272" text-anchor="middle" fill="#fff" font-family="system-ui" font-size="12" font-weight="600">Skills</text>
<text x="290" y="287" text-anchor="middle" fill="#888" font-family="system-ui" font-size="10">Habilidades adicionales</text>
<line x1="340" y1="240" x2="380" y2="180" stroke="#e94560" stroke-width="1" stroke-dasharray="4"/>

<!-- Modelo IA -->
<rect x="420" y="230" width="180" height="65" rx="10" fill="#111" stroke="#1a1a1a"/>
<text x="510" y="255" text-anchor="middle" fill="#e94560" font-family="system-ui" font-size="16">🤖</text>
<text x="510" y="272" text-anchor="middle" fill="#fff" font-family="system-ui" font-size="12" font-weight="600">Modelo IA</text>
<text x="510" y="287" text-anchor="middle" fill="#888" font-family="system-ui" font-size="10">Claude · GPT · DeepSeek</text>
<line x1="460" y1="240" x2="420" y2="180" stroke="#e94560" stroke-width="1" stroke-dasharray="4"/>

<!-- Bottom note -->
<text x="400" y="340" text-anchor="middle" fill="#888" font-family="system-ui" font-size="12">Todo se configura con archivos de texto. Sin base de datos. Sin complicaciones.</text>
<text x="400" y="365" text-anchor="middle" fill="#555" font-family="system-ui" font-size="11">tribuclaw.com</text>
<!-- v2 -->
</svg>