<svg xmlns="http://www.w3.org/2000/svg" viewBox="0 0 800 400" fill="none">
<rect width="800" height="400" fill="#080808"/>
<rect x="20" y="20" width="760" height="360" rx="16" fill="#0d0d0d" stroke="#1a1a1a"/>

<text x="400" y="55" text-anchor="middle" fill="#e94560" font-family="system-ui" font-size="14" font-weight="700">TOP 5 SERVICIOS MAS DEMANDADOS</text>

<!-- Service bars -->
<rect x="50" y="80" width="700" height="48" rx="8" fill="#111" stroke="#1a1a1a"/>
<rect x="50" y="80" width="700" height="48" rx="8" fill="#e9456015"/>
<text x="70" y="100" fill="#fff" font-family="system-ui" font-size="22">🤖</text>
<text x="100" y="100" fill="#fff" font-family="system-ui" font-size="12" font-weight="600">Chatbots + Atencion al cliente</text>
<text x="100" y="118" fill="#888" font-family="system-ui" font-size="10">Demanda: ALTA | Margen: ALTO</text>
<text x="700" y="108" text-anchor="end" fill="#e94560" font-family="system-ui" font-size="13" font-weight="700">1.500 - 5.000€</text>

<rect x="50" y="138" width="700" height="48" rx="8" fill="#111" stroke="#1a1a1a"/>
<rect x="50" y="138" width="630" height="48" rx="8" fill="#e9456010"/>
<text x="70" y="158" fill="#fff" font-family="system-ui" font-size="22">🧠</text>
<text x="100" y="158" fill="#fff" font-family="system-ui" font-size="12" font-weight="600">Agentes IA personalizados</text>
<text x="100" y="176" fill="#888" font-family="system-ui" font-size="10">Demanda: MEDIA-ALTA | Margen: MUY ALTO</text>
<text x="700" y="166" text-anchor="end" fill="#e94560" font-family="system-ui" font-size="13" font-weight="700">3.000 - 10.000€</text>

<rect x="50" y="196" width="700" height="48" rx="8" fill="#111" stroke="#1a1a1a"/>
<rect x="50" y="196" width="560" height="48" rx="8" fill="#e9456008"/>
<text x="70" y="216" fill="#fff" font-family="system-ui" font-size="22">📧</text>
<text x="100" y="216" fill="#fff" font-family="system-ui" font-size="12" font-weight="600">CRM + Email marketing IA</text>
<text x="100" y="234" fill="#888" font-family="system-ui" font-size="10">Demanda: ALTA | Margen: MEDIO</text>
<text x="700" y="224" text-anchor="end" fill="#e94560" font-family="system-ui" font-size="13" font-weight="700">1.000 - 3.000€</text>

<rect x="50" y="254" width="700" height="48" rx="8" fill="#111" stroke="#1a1a1a"/>
<rect x="50" y="254" width="490" height="48" rx="8" fill="#e9456006"/>
<text x="70" y="274" fill="#fff" font-family="system-ui" font-size="22">⚙️</text>
<text x="100" y="274" fill="#fff" font-family="system-ui" font-size="12" font-weight="600">Procesos internos</text>
<text x="100" y="292" fill="#888" font-family="system-ui" font-size="10">Demanda: MEDIA | Margen: MEDIO-ALTO</text>
<text x="700" y="282" text-anchor="end" fill="#e94560" font-family="system-ui" font-size="13" font-weight="700">2.000 - 6.000€</text>

<rect x="50" y="312" width="700" height="48" rx="8" fill="#111" stroke="#1a1a1a"/>
<rect x="50" y="312" width="420" height="48" rx="8" fill="#e9456004"/>
<text x="70" y="332" fill="#fff" font-family="system-ui" font-size="22">✍️</text>
<text x="100" y="332" fill="#fff" font-family="system-ui" font-size="12" font-weight="600">Contenido con IA</text>
<text x="100" y="350" fill="#888" font-family="system-ui" font-size="10">Demanda: ALTA | Margen: BAJO-MEDIO</text>
<text x="700" y="340" text-anchor="end" fill="#e94560" font-family="system-ui" font-size="13" font-weight="700">800 - 2.000€</text>

<text x="400" y="385" text-anchor="middle" fill="#555" font-family="system-ui" font-size="10">Precios de setup inicial | + mantenimiento mensual recurrente | tribuclaw.com</text>
</svg>