<svg xmlns="http://www.w3.org/2000/svg" viewBox="0 0 800 400" fill="none">
<rect width="800" height="400" fill="#080808"/>
<rect x="20" y="20" width="760" height="360" rx="16" fill="#0d0d0d" stroke="#1a1a1a"/>

<text x="400" y="55" text-anchor="middle" fill="#e94560" font-family="system-ui" font-size="15" font-weight="700">4 CAPAS DE MEMORIA</text>

<!-- Layer 0 -->
<rect x="50" y="75" width="160" height="280" rx="10" fill="#111" stroke="#e94560" stroke-width="2"/>
<text x="130" y="100" text-anchor="middle" fill="#e94560" font-family="system-ui" font-size="13" font-weight="700">CAPA 0</text>
<text x="130" y="120" text-anchor="middle" fill="#fff" font-family="system-ui" font-size="11" font-weight="600">Activa</text>
<line x1="65" y1="130" x2="195" y2="130" stroke="#333"/>
<text x="130" y="150" text-anchor="middle" fill="#fff" font-family="system-ui" font-size="10">NOW.md</text>
<text x="130" y="170" text-anchor="middle" fill="#fff" font-family="system-ui" font-size="10">MEMORY.md</text>
<text x="130" y="190" text-anchor="middle" fill="#fff" font-family="system-ui" font-size="10">AGENTS.md</text>
<text x="130" y="210" text-anchor="middle" fill="#fff" font-family="system-ui" font-size="10">SOUL.md</text>
<line x1="65" y1="225" x2="195" y2="225" stroke="#333"/>
<text x="130" y="250" text-anchor="middle" fill="#888" font-family="system-ui" font-size="9">Siempre en</text>
<text x="130" y="265" text-anchor="middle" fill="#888" font-family="system-ui" font-size="9">contexto</text>
<rect x="70" y="290" width="120" height="25" rx="5" fill="#e94560" opacity="0.2"/>
<text x="130" y="308" text-anchor="middle" fill="#e94560" font-family="system-ui" font-size="10" font-weight="600">2-5 KB</text>

<!-- Layer 1 -->
<rect x="230" y="75" width="160" height="280" rx="10" fill="#111" stroke="#e94560" stroke-width="1.5"/>
<text x="310" y="100" text-anchor="middle" fill="#e94560" font-family="system-ui" font-size="13" font-weight="700">CAPA 1</text>
<text x="310" y="120" text-anchor="middle" fill="#fff" font-family="system-ui" font-size="11" font-weight="600">Trabajo</text>
<line x1="245" y1="130" x2="375" y2="130" stroke="#333"/>
<text x="310" y="150" text-anchor="middle" fill="#fff" font-family="system-ui" font-size="10">daily/hoy.md</text>
<text x="310" y="170" text-anchor="middle" fill="#fff" font-family="system-ui" font-size="10">daily/ayer.md</text>
<text x="310" y="190" text-anchor="middle" fill="#888" font-family="system-ui" font-size="10">daily/anteayer.md</text>
<line x1="245" y1="225" x2="375" y2="225" stroke="#333"/>
<text x="310" y="250" text-anchor="middle" fill="#888" font-family="system-ui" font-size="9">24-48h recientes</text>
<text x="310" y="265" text-anchor="middle" fill="#888" font-family="system-ui" font-size="9">en contexto</text>
<rect x="250" y="290" width="120" height="25" rx="5" fill="#e94560" opacity="0.15"/>
<text x="310" y="308" text-anchor="middle" fill="#e94560" font-family="system-ui" font-size="10" font-weight="600">1-5 KB/dia</text>

<!-- Layer 2 -->
<rect x="410" y="75" width="160" height="280" rx="10" fill="#111" stroke="#e94560" stroke-width="1.5"/>
<text x="490" y="100" text-anchor="middle" fill="#e94560" font-family="system-ui" font-size="13" font-weight="700">CAPA 2</text>
<text x="490" y="120" text-anchor="middle" fill="#fff" font-family="system-ui" font-size="11" font-weight="600">Consolidada</text>
<line x1="425" y1="130" x2="555" y2="130" stroke="#333"/>
<text x="490" y="150" text-anchor="middle" fill="#fff" font-family="system-ui" font-size="10">knowledge/</text>
<text x="490" y="170" text-anchor="middle" fill="#fff" font-family="system-ui" font-size="10">decisions/</text>
<text x="490" y="190" text-anchor="middle" fill="#fff" font-family="system-ui" font-size="10">lessons/</text>
<line x1="425" y1="225" x2="555" y2="225" stroke="#333"/>
<text x="490" y="250" text-anchor="middle" fill="#888" font-family="system-ui" font-size="9">Auto cada 2 dias</text>
<text x="490" y="265" text-anchor="middle" fill="#888" font-family="system-ui" font-size="9">Bajo demanda</text>
<rect x="430" y="290" width="120" height="25" rx="5" fill="#e94560" opacity="0.1"/>
<text x="490" y="308" text-anchor="middle" fill="#e94560" font-family="system-ui" font-size="10" font-weight="600">Permanente</text>

<!-- Layer 3 -->
<rect x="590" y="75" width="160" height="280" rx="10" fill="#111" stroke="#e94560" stroke-width="1.5"/>
<text x="670" y="100" text-anchor="middle" fill="#e94560" font-family="system-ui" font-size="13" font-weight="700">CAPA 3</text>
<text x="670" y="120" text-anchor="middle" fill="#fff" font-family="system-ui" font-size="11" font-weight="600">Archivo</text>
<line x1="605" y1="130" x2="735" y2="130" stroke="#333"/>
<text x="670" y="150" text-anchor="middle" fill="#fff" font-family="system-ui" font-size="10">checkpoints/</text>
<text x="670" y="170" text-anchor="middle" fill="#fff" font-family="system-ui" font-size="10">embeddings/</text>
<text x="670" y="190" text-anchor="middle" fill="#fff" font-family="system-ui" font-size="10">cache/</text>
<line x1="605" y1="225" x2="735" y2="225" stroke="#333"/>
<text x="670" y="250" text-anchor="middle" fill="#888" font-family="system-ui" font-size="9">Snapshots 30min</text>
<text x="670" y="265" text-anchor="middle" fill="#888" font-family="system-ui" font-size="9">Busqueda semantica</text>
<rect x="610" y="290" width="120" height="25" rx="5" fill="#e94560" opacity="0.07"/>
<text x="670" y="308" text-anchor="middle" fill="#e94560" font-family="system-ui" font-size="10" font-weight="600">Menos de 50MB</text>

<text x="400" y="380" text-anchor="middle" fill="#555" font-family="system-ui" font-size="10">tribuclaw.com</text>
</svg>
